<svg xmlns="http://www.w3.org/2000/svg" width="1024" height="1024" viewBox="0 0 1024 1024">
<path d="M 794.66 560.67 C794.38,560.95 722.46,561.33 634.82,561.51 L 475.48 561.85 L 451.80 527.67 C438.77,508.88 420.30,482.25 410.74,468.50 C395.20,446.14 350.70,381.84 346.96,376.35 C346.16,375.16 342.39,369.81 338.59,364.44 L 331.69 354.69 L 327.59 359.13 C322.71,364.42 323.62,363.39 263.91,430.98 C237.93,460.40 215.63,485.60 214.36,486.98 C213.08,488.37 206.41,495.92 199.52,503.76 L 187.00 518.03 L 187.00 472.80 L 198.75 459.28 C205.21,451.84 215.23,440.27 221.00,433.56 C245.34,405.27 269.86,376.85 291.38,352.00 C304.00,337.42 317.51,321.79 321.41,317.26 L 328.50 309.01 L 475.13 309.01 L 621.76 309.00 L 628.13 318.36 C631.63,323.51 640.01,335.65 646.75,345.34 C653.49,355.03 659.00,363.27 659.00,363.66 C659.00,364.05 659.86,365.30 660.91,366.44 C661.96,367.57 664.99,371.70 667.66,375.62 C670.32,379.54 676.44,388.41 681.25,395.35 C686.06,402.28 690.00,408.21 690.00,408.52 C690.00,408.83 691.08,410.25 692.40,411.68 C693.73,413.11 695.41,415.45 696.15,416.89 C696.89,418.32 697.76,419.73 698.08,420.00 C699.53,421.24 710.00,436.87 710.00,437.80 C710.00,438.37 710.38,438.98 710.84,439.17 C711.58,439.46 732.44,468.98 739.11,479.16 C740.42,481.17 753.57,500.22 768.33,521.49 C783.09,542.76 794.94,560.39 794.66,560.67 ZM 438.94 703.25 L 435.75 715.00 L 413.34 715.00 C395.60,715.00 390.83,714.72 390.43,713.67 C389.98,712.51 393.01,699.34 394.71,695.00 C395.04,694.17 395.46,692.60 395.66,691.50 C395.86,690.40 397.19,685.22 398.62,680.00 C403.62,661.69 404.77,657.44 406.87,649.50 C408.03,645.10 410.46,636.10 412.26,629.50 L 415.54 617.50 L 421.02 616.85 C424.03,616.49 433.63,616.15 442.36,616.10 L 458.21 616.00 L 457.83 620.00 C457.62,622.20 457.80,624.00 458.22,624.00 C458.65,624.00 459.00,623.58 459.00,623.07 C459.00,622.56 461.58,620.93 464.73,619.43 C470.45,616.73 470.49,616.72 498.24,616.32 L 499.09 616.31 C521.98,615.98 528.95,615.87 532.19,619.30 C533.65,620.84 534.36,623.09 535.42,626.36 C535.94,627.98 536.52,627.70 539.97,624.15 C547.56,616.33 549.21,615.92 573.28,616.01 C596.65,616.09 600.92,616.83 607.07,621.90 C608.99,623.49 611.79,627.03 613.27,629.76 L 615.98 634.74 L 610.97 656.12 C608.21,667.88 605.52,679.53 604.99,682.00 C604.46,684.47 603.10,690.33 601.98,695.00 C600.86,699.67 599.43,706.09 598.80,709.25 L 597.65 715.00 L 574.32 715.00 C561.50,715.00 551.00,714.65 551.00,714.23 C551.00,713.80 551.91,710.32 553.03,706.48 C554.14,702.64 555.28,698.45 555.56,697.17 C556.60,692.39 564.13,663.44 564.71,662.00 C565.55,659.88 565.82,658.91 566.48,655.50 C566.81,653.85 567.95,649.26 569.02,645.29 C569.10,644.99 569.18,644.70 569.26,644.42 C570.39,640.26 571.03,637.90 570.13,636.59 C568.96,634.87 565.14,634.95 556.32,635.15 C555.86,635.16 555.39,635.17 554.90,635.18 C542.98,635.44 539.75,635.81 538.48,637.09 C537.60,637.97 532.46,655.23 526.91,676.00 C521.41,696.53 516.69,713.70 516.40,714.16 C516.12,714.62 505.51,715.00 492.83,715.00 L 469.78 715.00 L 470.48 711.26 C470.87,709.20 471.47,707.06 471.81,706.51 C472.16,705.95 472.58,704.63 472.74,703.56 C472.91,702.49 476.89,687.73 481.58,670.75 C486.28,653.77 489.98,638.90 489.81,637.69 C489.51,635.56 489.08,635.49 475.18,635.28 C461.51,635.06 460.75,635.16 458.61,637.30 C457.32,638.58 455.64,642.40 454.69,646.17 C453.78,649.81 452.50,654.07 451.85,655.64 C451.21,657.22 450.75,658.85 450.85,659.28 C450.94,659.70 449.02,667.13 446.58,675.78 C444.13,684.42 440.70,696.79 438.94,703.25 ZM 179.78 712.99 C176.66,714.90 174.75,714.99 140.00,714.99 C105.58,714.99 103.32,714.88 100.30,713.04 C96.62,710.80 94.33,707.64 92.99,702.96 C92.21,700.25 93.11,695.31 98.08,675.08 C105.25,645.87 115.23,609.13 118.02,601.67 C120.62,594.74 125.48,589.16 132.14,585.47 L 137.50 582.50 L 246.50 581.89 L 246.39 601.50 L 205.30 602.00 C159.90,602.55 163.68,602.00 157.35,609.00 C154.15,612.54 153.61,614.19 148.55,636.00 C146.07,646.72 142.49,661.68 140.61,669.24 C138.72,676.80 137.42,683.88 137.70,684.97 C138.80,689.16 143.05,690.02 159.38,689.36 C176.79,688.65 177.19,688.46 182.06,678.87 C184.44,674.17 189.00,659.68 189.00,656.81 C189.00,656.37 183.15,656.00 176.00,656.00 L 163.00 656.00 L 163.00 635.98 L 241.50 636.50 L 242.10 647.89 L 235.36 649.16 L 232.10 665.83 C230.31,675.00 227.40,689.70 225.63,698.50 L 222.41 714.50 L 203.58 714.77 C202.41,714.79 201.32,714.81 200.28,714.82 C189.53,714.99 185.99,715.04 185.38,713.73 C185.08,713.09 185.49,712.11 186.11,710.66 C186.23,710.37 186.36,710.07 186.49,709.75 C186.99,708.54 186.75,708.00 185.71,708.00 C184.89,708.00 183.96,708.67 183.64,709.49 C183.33,710.32 181.59,711.89 179.78,712.99 ZM 741.75 715.16 C741.13,715.54 732.15,715.90 721.79,715.96 C701.34,716.07 701.03,715.99 702.41,710.50 C703.08,707.83 701.60,706.99 700.64,709.49 C700.33,710.32 698.59,711.89 696.78,712.99 C693.70,714.87 691.77,714.99 664.50,714.97 C638.20,714.96 635.11,714.78 631.33,713.06 C624.30,709.87 622.88,706.47 622.92,692.82 C622.98,670.54 631.62,654.86 646.23,650.53 C650.33,649.31 657.40,649.00 681.52,649.00 L 711.68 649.00 L 712.71 646.74 C713.28,645.49 713.63,643.01 713.49,641.23 C713.36,639.64 713.34,638.46 712.82,637.58 C711.28,634.99 705.40,634.99 679.79,635.00 C678.67,635.00 677.52,635.00 676.33,635.00 L 641.90 635.00 L 642.49 631.03 C642.82,628.85 643.26,625.67 643.48,623.96 C643.70,622.24 644.62,619.71 645.53,618.32 L 647.18 615.79 L 692.84 616.10 C717.95,616.26 739.91,616.77 741.63,617.22 C747.36,618.70 753.64,625.49 755.29,631.96 C756.42,636.39 754.11,658.14 750.57,676.50 C744.90,705.79 742.93,714.42 741.75,715.16 ZM 814.99 713.53 C812.58,715.90 812.01,715.99 800.99,715.78 C794.67,715.65 781.74,715.42 772.25,715.25 C762.76,715.09 755.00,714.55 755.00,714.06 C755.00,713.57 767.60,702.94 783.00,690.43 C798.40,677.92 811.00,667.29 811.00,666.81 C811.00,666.06 795.41,644.09 779.91,623.00 L 775.13 616.50 L 779.82 615.83 C782.39,615.45 796.04,615.14 810.15,615.13 L 835.79 615.12 L 839.65 620.81 C841.77,623.94 843.68,626.95 843.90,627.50 C844.12,628.05 845.31,629.72 846.55,631.21 C847.79,632.71 848.99,634.48 849.22,635.15 C849.46,635.87 854.84,632.18 862.26,626.19 L 874.90 616.00 L 902.95 616.00 C930.22,616.00 934.95,616.55 928.60,618.96 C927.29,619.46 926.05,620.31 925.85,620.85 C925.66,621.39 922.35,624.32 918.50,627.37 C914.65,630.43 910.72,633.61 909.76,634.45 C908.81,635.29 904.08,639.11 899.26,642.94 C894.44,646.77 889.60,650.74 888.50,651.75 C887.40,652.77 883.27,656.23 879.33,659.44 C872.79,664.75 872.26,665.46 873.33,667.39 C873.97,668.55 874.75,669.72 875.05,670.00 C875.36,670.28 879.60,676.35 884.48,683.50 C889.35,690.65 896.23,700.66 899.75,705.75 L 906.15 715.00 L 845.06 715.00 L 839.89 707.25 C837.05,702.99 834.37,699.10 833.93,698.62 C833.23,697.84 821.79,706.85 814.99,713.53 ZM 324.50 711.00 L 320.59 715.00 L 291.05 714.96 C263.47,714.91 261.25,714.78 257.71,712.91 C253.39,710.63 250.39,706.31 249.52,701.08 C248.84,697.04 248.90,696.75 259.51,651.50 C265.42,626.32 267.72,618.09 269.24,616.75 C270.99,615.20 273.64,615.00 292.17,615.00 C303.69,615.00 312.89,615.37 312.61,615.82 C312.33,616.28 311.41,619.76 310.57,623.57 C308.88,631.21 308.66,632.15 300.55,666.38 C297.44,679.51 295.03,691.21 295.20,692.38 C295.49,694.41 296.09,694.51 309.66,694.78 C310.36,694.79 311.03,694.80 311.67,694.82 C319.12,694.98 323.13,695.06 325.79,693.21 C329.11,690.89 330.32,685.54 333.50,673.50 C335.98,664.15 338.20,655.60 338.46,654.50 C338.71,653.40 341.07,644.05 343.71,633.72 L 348.50 614.94 L 371.25 615.06 C383.76,615.13 394.00,615.56 394.00,616.02 C394.00,616.48 389.66,633.88 384.36,654.68 C379.07,675.48 373.52,697.45 372.04,703.50 L 369.35 714.50 L 348.65 714.77 L 327.95 715.04 L 328.56 712.27 C328.89,710.75 329.34,708.94 329.55,708.25 C330.25,705.97 328.45,706.95 324.50,711.00 ZM 883.30 597.42 C858.84,603.76 833.93,589.04 827.53,564.47 C821.29,540.51 836.01,515.57 860.02,509.41 C872.18,506.30 889.29,508.97 897.40,515.25 C900.35,517.54 906.41,523.48 908.83,526.46 C909.57,527.36 911.56,531.11 913.26,534.80 C915.87,540.44 916.43,543.03 916.79,551.16 C917.15,559.16 916.86,561.92 915.08,567.27 C912.25,575.75 908.55,581.43 901.98,587.33 C895.58,593.08 891.46,595.31 883.30,597.42 ZM 861.45 591.58 C867.21,593.49 879.21,592.76 886.20,590.08 C896.48,586.14 906.34,575.22 909.53,564.26 C911.14,558.70 911.39,545.90 909.93,543.00 C909.51,542.17 908.02,539.01 906.62,535.97 C903.61,529.45 896.79,522.29 890.13,518.67 C883.28,514.94 872.77,513.40 864.80,514.95 C833.30,521.09 821.48,558.57 843.95,581.05 C848.84,585.94 854.28,589.21 861.45,591.58 ZM 349.00 477.02 C349.00,497.85 348.66,515.02 348.25,515.19 C347.84,515.36 340.52,515.28 332.00,515.00 L 316.50 514.50 L 316.24 475.25 L 315.98 436.00 L 331.88 436.00 C345.46,436.00 347.87,436.23 348.39,437.58 C348.73,438.45 349.00,456.20 349.00,477.02 ZM 859.00 566.50 C859.00,576.83 858.96,577.00 856.67,577.00 C855.38,577.00 854.03,576.70 853.67,576.33 C853.30,575.97 853.00,565.17 853.00,552.33 L 853.00 529.00 L 868.28 529.00 C881.04,529.00 883.96,529.28 886.03,530.70 C889.72,533.25 890.84,535.07 891.56,539.70 C892.48,545.65 889.77,550.86 884.31,553.62 L 880.11 555.73 L 883.68 559.62 C888.09,564.42 894.00,573.53 894.00,575.52 C894.00,576.53 892.96,577.00 890.75,576.99 C887.77,576.97 887.09,576.30 882.50,568.89 C875.49,557.56 873.42,556.00 865.42,556.00 L 859.00 556.00 ZM 667.48 691.29 L 666.77 696.00 L 695.84 696.00 L 699.44 691.80 C703.48,687.08 705.29,681.84 705.42,674.52 L 705.50 669.53 L 699.50 668.71 C696.20,668.25 690.12,668.10 686.00,668.38 C679.03,668.85 678.28,669.12 675.38,672.28 C671.90,676.07 668.55,684.14 667.48,691.29 ZM 860.25 550.34 C863.50,551.65 876.64,550.93 880.00,549.25 C884.68,546.91 886.58,542.97 884.80,539.28 C882.80,535.09 879.56,534.03 868.75,534.01 L 859.00 534.00 L 859.00 541.92 C859.00,547.31 859.40,549.99 860.25,550.34 Z" fill="rgb(74,74,72)"/>
</svg>
